#define icon_width 294
#define icon_height 168
static char icon_bits[] = {
  0xFF, 0xFC, 0xFF, 0xFF, 0x3F, 0xFF, 0x7F, 0xF8, 0xFF, 0xFF, 0x1F, 0xFF, 
  0xF0, 0xFF, 0x7F, 0x42, 0x10, 0x04, 0x81, 0x8F, 0xFF, 0xFF, 0xFF, 0xFF, 
  0xFF, 0xFF, 0xFF, 0xFF, 0xFF, 0xFF, 0xFF, 0xFF, 0xFF, 0xFF, 0xFF, 0xFF, 
  0x3F, 0xFF, 0xFC, 0xFF, 0xFF, 0x3F, 0xFF, 0x7F, 0xF9, 0xFF, 0xFF, 0x5F, 
  0xFF, 0xF8, 0xFF, 0x7F, 0x00, 0x41, 0x10, 0x84, 0x0F, 0xFF, 0xFF, 0xFF, 
  0xFF, 0xFF, 0xFF, 0xFF, 0xFF, 0xFF, 0xFF, 0xFF, 0xFF, 0xFF, 0xFF, 0xFF, 
  0xFF, 0x3F, 0xFF, 0xFC, 0xFF, 0xFF, 0x9F, 0xFF, 0x7F, 0xF8, 0xFF, 0xFF, 
  0x1F, 0xFF, 0xF2, 0xFF, 0x7F, 0x00, 0x10, 0x00, 0xA1, 0x0F, 0xFF, 0xFF, 
  0xFF, 0xFF, 0xFF, 0xFF, 0xFF, 0xFF, 0xFF, 0xFF, 0xFF, 0xFF, 0xFF, 0xFF, 
  0xFF, 0xFF, 0x3F, 0x7F, 0xF9, 0xFF, 0xFF, 0x1F, 0xFF, 0x7F, 0xF8, 0xFF, 
  0xFF, 0x1F, 0xFF, 0xF0, 0xFF, 0x7F, 0x18, 0x04, 0x41, 0x80, 0x2F, 0xFF, 
  0xFF, 0xFF, 0xFF, 0xFF, 0xFF, 0xFF, 0xFF, 0xFF, 0xFF, 0xFF, 0xFF, 0xFF, 
  0xFF, 0xFF, 0xFF, 0x3F, 0x7F, 0xF8, 0xFF, 0xFF, 0x4F, 0xFE, 0x7F, 0xF8, 
  0xFF, 0xFF, 0x1F, 0xFF, 0xF0, 0xFF, 0xFF, 0xFF, 0x1F, 0xFE, 0xFF, 0x2F, 
  0xFF, 0xFF, 0xFF, 0xFF, 0xFF, 0xFF, 0xFF, 0xFF, 0xFF, 0xFF, 0xFF, 0xFF, 
  0xFF, 0xFF, 0xFF, 0xFF, 0x3F, 0x7F, 0xF8, 0xFF, 0xFF, 0x0F, 0xFE, 0x7F, 
  0xF9, 0xFF, 0xFF, 0x5F, 0xFF, 0xF0, 0xFF, 0xFF, 0xFF, 0x5F, 0xFE, 0xFF, 
  0x0F, 0xFF, 0xFF, 0xFF, 0xFF, 0xFF, 0xFF, 0xFF, 0xFF, 0xFF, 0xFF, 0xFF, 
  0xFF, 0xFF, 0xFF, 0xFF, 0xFF, 0x3F, 0x7F, 0xF1, 0xFF, 0xFF, 0x0F, 0xFE, 
  0x7F, 0xF8, 0xFF, 0xFF, 0x3F, 0xFF, 0xF9, 0xFF, 0xFF, 0xFF, 0x1F, 0xFE, 
  0xFF, 0x8F, 0xFF, 0xFF, 0xFF, 0xFF, 0xFF, 0xFF, 0xFF, 0xFF, 0xFF, 0xFF, 
  0xFF, 0xFF, 0xFF, 0xFF, 0xFF, 0xFF, 0x3F, 0x3F, 0xE0, 0xFF, 0xFF, 0x47, 
  0xFE, 0x7F, 0xF8, 0xFF, 0xFF, 0x1F, 0xFF, 0xF0, 0xFF, 0xFF, 0xFF, 0x1F, 
  0xFE, 0xFF, 0x0F, 0xFF, 0xFF, 0xFF, 0xFF, 0xFF, 0xFF, 0xFF, 0xFF, 0xFF, 
  0xFF, 0xFF, 0xFF, 0xFF, 0xFF, 0xFF, 0xFF, 0x3F, 0x7F, 0xE0, 0xFF, 0xFF, 
  0x17, 0xFC, 0x7F, 0xF8, 0xFF, 0xFF, 0x9F, 0xFF, 0xF8, 0xFF, 0xFF, 0xFF, 
  0x9F, 0xFE, 0xFF, 0x8F, 0xFF, 0xFF, 0xFF, 0xFF, 0xFF, 0xFF, 0xFF, 0xFF, 
  0xFF, 0xFF, 0xFF, 0xFF, 0xFF, 0xFF, 0xFF, 0xFF, 0x3F, 0x3F, 0xE1, 0xFF, 
  0xFF, 0x03, 0xFD, 0x7F, 0xFA, 0xFF, 0xFF, 0x1F, 0xFF, 0xF0, 0xFF, 0xFF, 
  0xFF, 0x1F, 0xFE, 0xFF, 0x0F, 0xFF, 0xFF, 0xFF, 0xFF, 0xFF, 0xFF, 0xFF, 
  0xFF, 0xFF, 0xFF, 0xFF, 0xFF, 0xFF, 0xFF, 0xFF, 0xFF, 0x3F, 0x3F, 0xC8, 
  0xFF, 0xFF, 0x03, 0xFC, 0x7F, 0xFC, 0xFF, 0xFF, 0x5F, 0xFF, 0xF1, 0xFF, 
  0xFF, 0xFF, 0x5F, 0xFE, 0xFF, 0x0F, 0xFF, 0xFF, 0xFF, 0xFF, 0xFF, 0xFF, 
  0xFF, 0xFF, 0xFF, 0xFF, 0xFF, 0xFF, 0xFF, 0xFF, 0xFF, 0xFF, 0x3F, 0xBF, 
  0xC2, 0xFF, 0xFF, 0x49, 0xFC, 0x7F, 0xF8, 0xFF, 0xFF, 0x1F, 0xFF, 0xF0, 
  0xFF, 0xFF, 0xFF, 0x1F, 0xFE, 0xFF, 0x2F, 0xFF, 0xFF, 0xFF, 0xFF, 0xFF, 
  0xFF, 0xFF, 0xFF, 0xFF, 0xFF, 0xFF, 0xFF, 0xFF, 0xFF, 0xFF, 0xFF, 0x3F, 
  0x1F, 0x86, 0xFF, 0xFF, 0x69, 0xFE, 0x7F, 0xF8, 0xFF, 0xFF, 0x1F, 0xFF, 
  0xF2, 0xFF, 0xFF, 0xFF, 0x1F, 0xFE, 0xFF, 0x2F, 0xFF, 0xFF, 0xFF, 0xFF, 
  0xFF, 0xFF, 0xFF, 0xFF, 0xFF, 0xFF, 0xFF, 0xFF, 0xFF, 0xFF, 0xFF, 0xFF, 
  0x3F, 0x1F, 0xA6, 0xFF, 0xFF, 0x61, 0xF8, 0x7F, 0xF9, 0xFF, 0xFF, 0x1F, 
  0xFF, 0xF0, 0xFF, 0xFF, 0xFF, 0x1F, 0xFE, 0xFF, 0x0F, 0xFF, 0xFF, 0xFF, 
  0xFF, 0xFF, 0xFF, 0xFF, 0xFF, 0xFF, 0xFF, 0xFF, 0xFF, 0xFF, 0xFF, 0xFF, 
  0xFF, 0x3F, 0x1F, 0x06, 0xFF, 0xFF, 0x74, 0xFC, 0x7F, 0xF8, 0xFF, 0xFF, 
  0x9F, 0xFF, 0xF8, 0xFF, 0xFF, 0xFF, 0x9F, 0xFE, 0xFF, 0x8F, 0xFF, 0xFF, 
  0xFF, 0xFF, 0xFF, 0xFF, 0xFF, 0xFF, 0xFF, 0xFF, 0xFF, 0xFF, 0xFF, 0xFF, 
  0xFF, 0xFF, 0x3F, 0x5F, 0x2E, 0xFF, 0xFF, 0x70, 0xF8, 0x7F, 0xF8, 0xFF, 
  0xFF, 0x1F, 0xFF, 0xF0, 0xFF, 0xFF, 0xFF, 0x1F, 0xFE, 0xFF, 0x0F, 0xFF, 
  0xFF, 0xFF, 0xFF, 0xFF, 0xFF, 0xFF, 0xFF, 0xFF, 0xFF, 0xFF, 0xFF, 0xFF, 
  0xFF, 0xFF, 0xFF, 0x3F, 0x1F, 0x0F, 0xFE, 0x7F, 0x78, 0xFA, 0x7F, 0xF8, 
  0xFF, 0xFF, 0x5F, 0xFF, 0xF5, 0xFF, 0xFF, 0xFF, 0x5F, 0xFE, 0xFF, 0x8F, 
  0xFF, 0xFF, 0xFF, 0xFF, 0xFF, 0xFF, 0xFF, 0xFF, 0xFF, 0xFF, 0xFF, 0xFF, 
  0xFF, 0xFF, 0xFF, 0xFF, 0x3F, 0x8F, 0x9F, 0xFE, 0x7F, 0xF9, 0xF0, 0x7F, 
  0xF9, 0xFF, 0xFF, 0x1F, 0xFF, 0xF0, 0xFF, 0xFF, 0xFF, 0x1F, 0xFE, 0xFF, 
  0x0F, 0xFF, 0xFF, 0xFF, 0xFF, 0xFF, 0xFF, 0xFF, 0xFF, 0xFF, 0xFF, 0xFF, 
  0xFF, 0xFF, 0xFF, 0xFF, 0xFF, 0x3F, 0x2F, 0x1F, 0xFE, 0x3F, 0xF8, 0xF0, 
  0x7F, 0xF8, 0xFF, 0xFF, 0x1F, 0xFF, 0xF2, 0xFF, 0xFF, 0xFF, 0x1F, 0xFE, 
  0xFF, 0x0F, 0xFF, 0xFF, 0xFF, 0xFF, 0xFF, 0xFF, 0xFF, 0xFF, 0xFF, 0xFF, 
  0xFF, 0xFF, 0xFF, 0xFF, 0xFF, 0xFF, 0x3F, 0x0F, 0x3F, 0xFC, 0x3F, 0xFC, 
  0xF1, 0x7F, 0xF8, 0xFF, 0xFF, 0x1F, 0xFF, 0xF0, 0xFF, 0xFF, 0xFF, 0x9F, 
  0xFE, 0xFF, 0x2F, 0xFF, 0xFF, 0xFF, 0xFF, 0xFF, 0xFF, 0xFF, 0xFF, 0xFF, 
  0xFF, 0xFF, 0xFF, 0xFF, 0xFF, 0xFF, 0xFF, 0x3F, 0x4F, 0x3F, 0xFC, 0xBF, 
  0xFC, 0xF0, 0x7F, 0xF8, 0xFF, 0xFF, 0x9F, 0xFF, 0xF8, 0xFF, 0xFF, 0xFF, 
  0x1F, 0xFE, 0xFF, 0x2F, 0xFF, 0xFF, 0xFF, 0xFF, 0xFF, 0xFF, 0xFF, 0xFF, 
  0xFF, 0xFF, 0xFF, 0xFF, 0xFF, 0xFF, 0xFF, 0xFF, 0x3F, 0x87, 0x7F, 0xF8, 
  0x1F, 0xFE, 0xF5, 0x7F, 0xF9, 0xFF, 0xFF, 0x1F, 0xFF, 0xF0, 0xFF, 0xFF, 
  0xFF, 0x1F, 0xFE, 0xFF, 0x0F, 0xFF, 0xFF, 0xFF, 0xFF, 0xFF, 0xFF, 0xFF, 
  0xFF, 0xFF, 0xFF, 0xFF, 0xFF, 0xFF, 0xFF, 0xFF, 0xFF, 0x3F, 0x87, 0x7F, 
  0xF9, 0x1F, 0xFE, 0xE1, 0x7F, 0xF8, 0xFF, 0xFF, 0x1F, 0xFF, 0xF1, 0xFF, 
  0xFF, 0xFF, 0x1F, 0xFE, 0xFF, 0x8F, 0xFF, 0xFF, 0xFF, 0xFF, 0xFF, 0xFF, 
  0xFF, 0xFF, 0xFF, 0xFF, 0xFF, 0xFF, 0xFF, 0xFF, 0xFF, 0xFF, 0x3F, 0x97, 
  0x7F, 0xF0, 0x0F, 0xFF, 0xE1, 0x7F, 0xF8, 0xFF, 0xFF, 0x1F, 0xFF, 0xF0, 
  0xFF, 0xFF, 0xFF, 0x5F, 0xFE, 0xFF, 0x0F, 0xFF, 0xFF, 0xFF, 0xFF, 0xFF, 
  0xFF, 0xFF, 0xFF, 0xFF, 0xFF, 0xFF, 0xFF, 0xFF, 0xFF, 0xFF, 0xFF, 0x3F, 
  0x87, 0xFF, 0xF2, 0x0F, 0xFF, 0xF1, 0x7F, 0xF8, 0xFF, 0xFF, 0x1F, 0xFF, 
  0xF2, 0xFF, 0xFF, 0xFF, 0x1F, 0xFE, 0xFF, 0x8F, 0xFF, 0xFF, 0xFF, 0xFF, 
  0xFF, 0xFF, 0xFF, 0xFF, 0xFF, 0xFF, 0xFF, 0xFF, 0xFF, 0xFF, 0xFF, 0xFF, 
  0x3F, 0xD7, 0xFF, 0xF0, 0x87, 0xFF, 0xE1, 0x7F, 0xFA, 0xFF, 0xFF, 0x5F, 
  0xFF, 0xF0, 0xFF, 0xFF, 0xFF, 0x5F, 0xFE, 0xFF, 0x0F, 0xFF, 0xFF, 0xFF, 
  0xFF, 0xFF, 0xFF, 0xFF, 0xFF, 0xFF, 0xFF, 0xFF, 0xFF, 0xFF, 0xFF, 0xFF, 
  0xFF, 0x3F, 0xC3, 0xFF, 0xE9, 0xA7, 0xFF, 0xEB, 0x7F, 0xFC, 0xFF, 0xFF, 
  0x1F, 0xFF, 0xF8, 0xFF, 0xFF, 0xFF, 0x1F, 0xFE, 0xFF, 0x0F, 0xFF, 0xFF, 
  0xFF, 0xFF, 0xFF, 0xFF, 0xFF, 0xFF, 0xFF, 0xFF, 0xFF, 0xFF, 0xFF, 0xFF, 
  0xFF, 0xFF, 0x3F, 0xC3, 0xFF, 0xE1, 0x87, 0xFF, 0xC3, 0x7F, 0xF8, 0xFF, 
  0xFF, 0x1F, 0xFF, 0xF0, 0xFF, 0xFF, 0xFF, 0x1F, 0xFE, 0xFF, 0x2F, 0xFF, 
  0xFF, 0xFF, 0xFF, 0xFF, 0xFF, 0xFF, 0xFF, 0xFF, 0xFF, 0xFF, 0xFF, 0xFF, 
  0xFF, 0xFF, 0xFF, 0x3F, 0xC3, 0xFF, 0xCB, 0xC3, 0xFF, 0xC3, 0x7F, 0xF9, 
  0xFF, 0xFF, 0x4F, 0xFF, 0xF5, 0xFF, 0xFF, 0xFF, 0x1F, 0xFE, 0xFF, 0x2F, 
  0xFF, 0xFF, 0xFF, 0xFF, 0xFF, 0xFF, 0xFF, 0xFF, 0xFF, 0xFF, 0xFF, 0xFF, 
  0xFF, 0xFF, 0xFF, 0xFF, 0x3F, 0xD7, 0xFF, 0xC3, 0xE3, 0xFF, 0xC3, 0xFF, 
  0xF8, 0xFF, 0xFF, 0x0F, 0xFF, 0xF0, 0xFF, 0xFF, 0xFF, 0x5F, 0xFE, 0xFF, 
  0x0F, 0xFF, 0xFF, 0xFF, 0xFF, 0xFF, 0xFF, 0xFF, 0xFF, 0xFF, 0xFF, 0xFF, 
  0xFF, 0xFF, 0xFF, 0xFF, 0xFF, 0x3F, 0xE3, 0xFF, 0x83, 0xE9, 0xFF, 0xE7, 
  0xFF, 0xF0, 0xFF, 0xFF, 0x0F, 0xFF, 0xF2, 0xFF, 0xFF, 0xFF, 0x1F, 0xFE, 
  0xFF, 0x8F, 0xFF, 0xFF, 0xFF, 0xFF, 0xFF, 0xFF, 0xFF, 0xFF, 0xFF, 0xFF, 
  0xFF, 0xFF, 0xFF, 0xFF, 0xFF, 0xFF, 0x3F, 0xE1, 0xFF, 0x97, 0xE1, 0xFF, 
  0x87, 0xFF, 0xF0, 0xFF, 0xFF, 0x47, 0xFF, 0xF0, 0xFF, 0xFF, 0xFF, 0x1F, 
  0xFE, 0xFF, 0x0F, 0xFF, 0xFF, 0xFF, 0xFF, 0xFF, 0xFF, 0xFF, 0xFF, 0xFF, 
  0xFF, 0xFF, 0xFF, 0xFF, 0xFF, 0xFF, 0xFF, 0x3F, 0xE9, 0xFF, 0x47, 0xE4, 
  0xFF, 0x87, 0xFF, 0xF0, 0xFF, 0xFF, 0xC7, 0xFF, 0xF8, 0xFF, 0xFF, 0xFF, 
  0x9F, 0xFE, 0xFF, 0x0F, 0xFF, 0xFF, 0xFF, 0xFF, 0xFF, 0xFF, 0xFF, 0xFF, 
  0xFF, 0xFF, 0xFF, 0xFF, 0xFF, 0xFF, 0xFF, 0xFF, 0x3F, 0xE1, 0xFF, 0x0F, 
  0xF0, 0xFF, 0x97, 0xFF, 0xE9, 0xFF, 0xFF, 0x8B, 0xFF, 0xF0, 0xFF, 0xFF, 
  0xFF, 0x1F, 0xFE, 0xFF, 0x1F, 0xFF, 0xFF, 0xFF, 0xFF, 0xFF, 0xFF, 0xFF, 
  0xFF, 0xFF, 0xFF, 0xFF, 0xFF, 0xFF, 0xFF, 0xFF, 0xFF, 0x3F, 0xF1, 0xFF, 
  0x2F, 0xF2, 0xFF, 0x87, 0xFF, 0xC1, 0xFF, 0xFF, 0xC3, 0xFF, 0xF1, 0xFF, 
  0xFF, 0xFF, 0x5F, 0xFE, 0xFF, 0x0F, 0xFF, 0xFF, 0xFF, 0xFF, 0xFF, 0xFF, 
  0xFF, 0xFF, 0xFF, 0xFF, 0xFF, 0xFF, 0xFF, 0xFF, 0xFF, 0xFF, 0x3F, 0xF0, 
  0xFF, 0x9F, 0xF8, 0xFF, 0x8F, 0xFF, 0x83, 0xFF, 0xFF, 0xC0, 0xFF, 0xF0, 
  0xFF, 0xFF, 0xFF, 0x1F, 0xFE, 0xFF, 0x4F, 0xFF, 0xFF, 0xFF, 0xFF, 0xFF, 
  0xFF, 0xFF, 0xFF, 0xFF, 0xFF, 0xFF, 0xFF, 0xFF, 0xFF, 0xFF, 0xFF, 0x3F, 
  0xF0, 0xFF, 0x1F, 0xFC, 0xFF, 0x1F, 0xFF, 0x13, 0xFE, 0x7F, 0xE2, 0xFF, 
  0xF2, 0xFF, 0xFF, 0xFF, 0x1F, 0xFE, 0xFF, 0x0F, 0xFF, 0xFF, 0xFF, 0xFF, 
  0xFF, 0xFF, 0xFF, 0xFF, 0xFF, 0xFF, 0xFF, 0xFF, 0xFF, 0xFF, 0xFF, 0xFF, 
  0x3F, 0xF2, 0xFF, 0x1F, 0xFC, 0xFF, 0x0F, 0xFF, 0x47, 0xFA, 0x0F, 0xF0, 
  0xFF, 0x20, 0x00, 0x00, 0xFF, 0x1F, 0xFE, 0xFF, 0x8F, 0xFF, 0xFF, 0xFF, 
  0xFF, 0xFF, 0xFF, 0xFF, 0xFF, 0xFF, 0xFF, 0xFF, 0xFF, 0xFF, 0xFF, 0xFF, 
  0xFF, 0x3F, 0xF4, 0xFF, 0xBF, 0xFC, 0xFF, 0x8F, 0xFF, 0x0F, 0x08, 0x20, 
  0xF8, 0xFF, 0x48, 0x00, 0x00, 0xFF, 0x9F, 0xFE, 0xFF, 0x0F, 0xFF, 0xFF, 
  0xFF, 0xFF, 0xFF, 0xFF, 0xFF, 0xFF, 0xFF, 0xFF, 0xFF, 0xFF, 0xFF, 0xFF, 
  0xFF, 0xFF, 0x3F, 0xF8, 0xFF, 0x3F, 0xFC, 0xFF, 0x0F, 0xFF, 0x3F, 0x40, 
  0x04, 0xFD, 0xFF, 0x00, 0x44, 0x14, 0xFF, 0x1F, 0xFE, 0xFF, 0x1F, 0xFF, 
  0xFF, 0xFF, 0xFF, 0xFF, 0xFF, 0xFF, 0xFF, 0xFF, 0xFF, 0xFF, 0xFF, 0xFF, 
  0xFF, 0xFF, 0xFF, 0x3F, 0xF9, 0xFF, 0x7F, 0xFE, 0xFF, 0x1F, 0xFF, 0xFF, 
  0x00, 0x81, 0xFF, 0xFF, 0x01, 0x00, 0x00, 0xFF, 0x1F, 0xFE, 0xFF, 0x0F, 
  0xFF, 0xFF, 0xFF, 0xFF, 0xFF, 0xFF, 0xFF, 0xFF, 0xFF, 0xFF, 0xFF, 0xFF, 
  0xFF, 0xFF, 0xFF, 0xFF, 0x3F, 0xFF, 0xFF, 0x7F, 0xFE, 0xFF, 0xDF, 0xFF, 
  0xFF, 0x1F, 0xF8, 0xFF, 0xFF, 0xFF, 0xFF, 0xFF, 0xFF, 0xFF, 0xFF, 0xFF, 
  0xFF, 0xFF, 0xFF, 0xFF, 0xFF, 0xFF, 0xFF, 0xFF, 0xFF, 0xFF, 0xFF, 0xFF, 
  0xFF, 0xFF, 0xFF, 0xFF, 0xFF, 0x3F, 0xFF, 0xFF, 0xFF, 0xFF, 0xFF, 0xFF, 
  0xFF, 0xFF, 0xFF, 0xFF, 0xFF, 0xFF, 0xFF, 0xFF, 0xFF, 0xFF, 0xFF, 0xFF, 
  0xFF, 0xFF, 0xFF, 0xFF, 0xFF, 0xFF, 0xFF, 0xFF, 0xFF, 0xFF, 0xFF, 0xFF, 
  0xFF, 0xFF, 0xFF, 0xFF, 0xFF, 0xFF, 0x3F, 0xFF, 0xFF, 0xFF, 0xFF, 0xFF, 
  0xFF, 0xFF, 0xFF, 0xFF, 0xFF, 0xFF, 0xFF, 0xFF, 0xFF, 0xFF, 0xFF, 0xFF, 
  0xFF, 0xFF, 0xFF, 0xFF, 0xFF, 0xFF, 0xFF, 0xFF, 0xFF, 0xFF, 0xFF, 0xFF, 
  0xFF, 0xFF, 0xFF, 0xFF, 0xFF, 0xFF, 0xFF, 0x3F, 0xFF, 0xFF, 0xFF, 0xFF, 
  0xFF, 0xFF, 0xFF, 0xFF, 0xFF, 0xFF, 0xFF, 0xFF, 0xFF, 0xFF, 0xFF, 0xFF, 
  0xFF, 0xFF, 0xFF, 0xFF, 0xFF, 0xFF, 0xFF, 0xFF, 0xFF, 0xFF, 0xFF, 0xFF, 
  0xFF, 0xFF, 0xFF, 0xFF, 0xFF, 0xFF, 0xFF, 0xFF, 0x3F, 0xFF, 0xFF, 0xFF, 
  0xFF, 0xFF, 0xFF, 0xFF, 0xFF, 0xFF, 0xFF, 0xFF, 0xFF, 0xFF, 0xFF, 0xFF, 
  0xFF, 0xFF, 0xFF, 0xFF, 0xFF, 0xFF, 0xFF, 0xFF, 0xFF, 0xFF, 0xFF, 0xFF, 
  0xFF, 0xFF, 0xFF, 0xFF, 0xFF, 0xFF, 0xFF, 0xFF, 0xFF, 0x3F, 0xFF, 0xFF, 
  0xFF, 0xFF, 0xFF, 0xFF, 0xFF, 0xFF, 0xFF, 0xFF, 0xFF, 0xFF, 0xFF, 0xFF, 
  0xFF, 0xFF, 0xFF, 0xFF, 0xFF, 0xFF, 0xFF, 0xFF, 0xFF, 0xFF, 0xFF, 0xFF, 
  0xFF, 0xFF, 0xFF, 0xFF, 0xFF, 0xFF, 0xFF, 0xFF, 0xFF, 0xFF, 0x3F, 0xFF, 
  0xFF, 0xFF, 0xFF, 0xFF, 0xFF, 0xFF, 0xFF, 0xFF, 0xFF, 0xFF, 0xFF, 0xFF, 
  0xFF, 0xFF, 0xFF, 0xFF, 0xFF, 0xFF, 0xFF, 0xFF, 0xFF, 0xFF, 0xFF, 0xFF, 
  0xFF, 0xFF, 0xFF, 0xFF, 0xFF, 0xFF, 0xFF, 0xFF, 0xFF, 0xFF, 0xFF, 0x3F, 
  0xFF, 0xFF, 0xFF, 0xFF, 0xFF, 0xFF, 0xFF, 0xFF, 0xFF, 0xFF, 0xFF, 0xFF, 
  0xFF, 0xFF, 0xFF, 0xFF, 0xFF, 0xFF, 0xFF, 0xFF, 0xFF, 0xFF, 0xFF, 0xFF, 
  0xFF, 0xFF, 0xFF, 0xFF, 0xFF, 0xFF, 0xFF, 0xFF, 0xFF, 0xFF, 0xFF, 0xFF, 
  0x3F, 0xFF, 0xFF, 0xFF, 0xFF, 0xFF, 0xFF, 0xFF, 0xFF, 0xFF, 0xFF, 0xFF, 
  0xFF, 0xFF, 0xFF, 0xFF, 0xFF, 0xFF, 0xFF, 0xFF, 0xFF, 0xFF, 0xFF, 0xFF, 
  0xFF, 0xFF, 0xFF, 0xFF, 0xFF, 0xFF, 0xFF, 0xFF, 0xFF, 0xFF, 0xFF, 0xFF, 
  0xFF, 0x3F, 0xFF, 0xFF, 0xFF, 0xFF, 0xFF, 0xFF, 0xFF, 0xFF, 0xFF, 0xFF, 
  0xFF, 0xFF, 0xFF, 0xFF, 0xFF, 0xFF, 0xFF, 0xFF, 0xFF, 0xFF, 0xFF, 0xFF, 
  0xFF, 0xFF, 0xFF, 0xFF, 0xFF, 0xFF, 0xFF, 0xFF, 0xFF, 0xFF, 0xFF, 0xFF, 
  0xFF, 0xFF, 0x3F, 0xFF, 0xFF, 0xFF, 0xFF, 0xFF, 0xFF, 0xFF, 0xFF, 0xFF, 
  0xFF, 0xFF, 0xFF, 0xFF, 0xFF, 0xFF, 0x1F, 0xFF, 0xFF, 0xFF, 0xFF, 0xFF, 
  0xFF, 0xFF, 0xFF, 0xFF, 0xFF, 0xFF, 0xFF, 0xFF, 0xFF, 0xFF, 0xFF, 0xFF, 
  0xFF, 0xFF, 0xFF, 0x3F, 0xFF, 0xFF, 0xFF, 0xFF, 0xFF, 0xFF, 0xFF, 0xFF, 
  0xFF, 0xFF, 0xFF, 0xFF, 0xFF, 0xFF, 0xFF, 0x07, 0xF0, 0xFF, 0xFF, 0xFF, 
  0xFF, 0xFF, 0xFF, 0xFF, 0xFF, 0xFF, 0xFF, 0xFF, 0xFF, 0xFF, 0xFF, 0xFF, 
  0xFF, 0xFF, 0xFF, 0xFF, 0x3F, 0xFF, 0xFF, 0xFF, 0xFF, 0xFF, 0xFF, 0xFF, 
  0xFF, 0xFF, 0xFF, 0xFF, 0xFF, 0xFF, 0xFF, 0xFF, 0x00, 0xE4, 0xFF, 0xFF, 
  0xFF, 0xFF, 0xFF, 0xFF, 0xFF, 0xFF, 0xFF, 0xFF, 0xFF, 0x3F, 0xFE, 0xFF, 
  0xFF, 0xFF, 0xFF, 0xFF, 0xFF, 0x3F, 0xFF, 0xFF, 0xFF, 0xFF, 0xFF, 0xFF, 
  0xFF, 0xFF, 0xFF, 0xFF, 0xFF, 0xFF, 0xFF, 0xFF, 0x7F, 0x82, 0xC0, 0xFF, 
  0xFF, 0xFF, 0xFF, 0xFF, 0xFF, 0xFF, 0xFF, 0xFF, 0xFF, 0xFF, 0x07, 0xF2, 
  0xFF, 0xFF, 0xFF, 0xFF, 0xFF, 0xFF, 0x3F, 0xFF, 0xFF, 0xFF, 0xFF, 0xFF, 
  0xFF, 0xFF, 0xFF, 0xFF, 0xFF, 0xFF, 0xFF, 0xFF, 0xFF, 0x7F, 0x10, 0x8A, 
  0xFF, 0xFF, 0xFF, 0xFF, 0xFF, 0xFF, 0xFF, 0xFF, 0xFF, 0xFF, 0xFF, 0x21, 
  0xE0, 0xFF, 0xFF, 0xFF, 0xFF, 0xFF, 0xFF, 0x3F, 0xFF, 0xFF, 0xFF, 0xFF, 
  0xFF, 0xFF, 0xFF, 0xFF, 0xFF, 0xFF, 0xFF, 0xFF, 0xFF, 0xFF, 0x3F, 0x20, 
  0x24, 0xFF, 0xFF, 0xFF, 0xFF, 0xFF, 0xFF, 0xFF, 0xFF, 0xFF, 0xFF, 0xFF, 
  0x21, 0xC0, 0xFF, 0xFF, 0xFF, 0xFF, 0xFF, 0xFF, 0x3F, 0xFF, 0xFF, 0xFF, 
  0xFF, 0xFF, 0xFF, 0xFF, 0xFF, 0xFF, 0xFF, 0xFF, 0xFF, 0xFF, 0xFF, 0x1F, 
  0x04, 0x00, 0xFF, 0xFF, 0xFF, 0xFF, 0xFF, 0xFF, 0xFF, 0xFF, 0xFF, 0xFF, 
  0xFF, 0x04, 0x88, 0xFF, 0xFF, 0xFF, 0xFF, 0xFF, 0xFF, 0x3F, 0xFF, 0xFF, 
  0xFF, 0xFF, 0xFF, 0xFF, 0xFF, 0xFF, 0xFF, 0xFF, 0xFF, 0xFF, 0xFF, 0xFF, 
  0x1F, 0x42, 0x00, 0xFE, 0xFF, 0xFF, 0xFF, 0xFF, 0xFF, 0xFF, 0xFF, 0xFF, 
  0xFF, 0x7F, 0x00, 0x82, 0xFF, 0xFF, 0xFF, 0xFF, 0xFF, 0xFF, 0x3F, 0xFF, 
  0xFF, 0xFF, 0xFF, 0xFF, 0xFF, 0xFF, 0xFF, 0xFF, 0xFF, 0xFF, 0xFF, 0xFF, 
  0xFF, 0x8F, 0x08, 0x24, 0xFE, 0xFF, 0xFF, 0xFF, 0xFF, 0xFF, 0xFF, 0xFF, 
  0xFF, 0xFF, 0x7F, 0x82, 0x98, 0xFF, 0xFF, 0xFF, 0xFF, 0xFF, 0xFF, 0x3F, 
  0xFF, 0xFF, 0xFF, 0xFF, 0xFF, 0xFF, 0xFF, 0xFF, 0xFF, 0xFF, 0xFF, 0xFF, 
  0xFF, 0xFF, 0x2F, 0x24, 0x10, 0xFE, 0xFF, 0xFF, 0xFF, 0xFF, 0xFF, 0xFF, 
  0xFF, 0xFF, 0xFF, 0x7F, 0x08, 0x80, 0xFF, 0xFF, 0xFF, 0xFF, 0xFF, 0xFF, 
  0x3F, 0xFF, 0xFF, 0xFF, 0xFF, 0xFF, 0xFF, 0xFF, 0xFF, 0xFF, 0xFF, 0xFF, 
  0xFF, 0xFF, 0xFF, 0x0F, 0x00, 0x42, 0xFE, 0xFF, 0xFF, 0xFF, 0xFF, 0xFF, 
  0xFF, 0xFF, 0xFF, 0xFF, 0x7F, 0x10, 0x01, 0xFF, 0xFF, 0xFF, 0xFF, 0xFF, 
  0xFF, 0x3F, 0xFF, 0xFF, 0xFF, 0xFF, 0xFF, 0xFF, 0xFF, 0xFF, 0xFF, 0xFF, 
  0xFF, 0xFF, 0xFF, 0xFF, 0x4F, 0x00, 0x00, 0xFE, 0xFF, 0xFF, 0xFF, 0xFF, 
  0xFF, 0xFF, 0xFF, 0xFF, 0xFF, 0x7F, 0x41, 0x10, 0xFF, 0xFF, 0xFF, 0xFF, 
  0xFF, 0xFF, 0x3F, 0xFF, 0xFF, 0xFF, 0xFF, 0xFF, 0xFF, 0xFF, 0xFF, 0xFF, 
  0xFF, 0xFF, 0xFF, 0xFF, 0xFF, 0x1F, 0x14, 0x24, 0xFE, 0xFF, 0xFF, 0xFF, 
  0xFF, 0xFF, 0xFF, 0xFF, 0xFF, 0xFF, 0x7F, 0x10, 0x04, 0xFF, 0xFF, 0xFF, 
  0xFF, 0xFF, 0xFF, 0x3F, 0xFF, 0xFF, 0xFF, 0xFF, 0xFF, 0xFF, 0xFF, 0xFF, 
  0xFF, 0xFF, 0xFF, 0xFF, 0xFF, 0xFF, 0x1F, 0x50, 0x00, 0xFC, 0xFF, 0xFF, 
  0xFF, 0xFF, 0xFF, 0xFF, 0xFF, 0xFF, 0xFF, 0x7F, 0x84, 0x90, 0xFF, 0xFF, 
  0xFF, 0xFF, 0xFF, 0xFF, 0x3F, 0xFF, 0xFF, 0xFF, 0xFF, 0xFF, 0xFF, 0xFF, 
  0xFF, 0xFF, 0xFF, 0xFF, 0xFF, 0xFF, 0xFF, 0x5F, 0x01, 0x09, 0xF8, 0xFF, 
  0xFF, 0xFF, 0xFF, 0xFF, 0xFF, 0xFF, 0xFF, 0xFF, 0xFF, 0x00, 0x81, 0xFF, 
  0xFF, 0xFF, 0xFF, 0xFF, 0xFF, 0x3F, 0xFF, 0xFF, 0xFF, 0xFF, 0xFF, 0xFF, 
  0xFF, 0xFF, 0xFF, 0xFF, 0xFF, 0xFF, 0xFF, 0xFF, 0x1F, 0x24, 0x20, 0xF0, 
  0xFF, 0xFF, 0xFF, 0xFF, 0xFF, 0xFF, 0xFF, 0xFF, 0xFF, 0xFF, 0x00, 0xE4, 
  0xFF, 0xFF, 0xFF, 0xFF, 0xFF, 0xFF, 0x3F, 0xFF, 0xFF, 0xFF, 0xFF, 0xFF, 
  0xFF, 0xFF, 0xFF, 0xFF, 0xFF, 0xFF, 0xFF, 0xFF, 0xFF, 0x3F, 0x00, 0x00, 
  0xE0, 0xFF, 0xFF, 0xFF, 0xFF, 0xFF, 0xFF, 0xFF, 0xFF, 0xFF, 0xFF, 0x20, 
  0xC0, 0xFF, 0xFF, 0xFF, 0xFF, 0xFF, 0xFF, 0x3F, 0xFF, 0xFF, 0xFF, 0xFF, 
  0xFF, 0xFF, 0xFF, 0xFF, 0xFF, 0xFF, 0xFF, 0xFF, 0xFF, 0xFF, 0x7F, 0x84, 
  0x00, 0x80, 0xFF, 0xFF, 0xFF, 0xFF, 0xFF, 0xFF, 0xFF, 0xFF, 0xFF, 0x7F, 
  0x20, 0xE0, 0xFF, 0xFF, 0xFF, 0xFF, 0xFF, 0xFF, 0x3F, 0xFF, 0xFF, 0xFF, 
  0xFF, 0xFF, 0xFF, 0xFF, 0xFF, 0xFF, 0xFF, 0xFF, 0xFF, 0xFF, 0xFF, 0x7F, 
  0x00, 0x01, 0x00, 0xFF, 0xFF, 0xFF, 0xFF, 0xFF, 0xFF, 0xFF, 0xFF, 0xFF, 
  0x3F, 0x00, 0xF8, 0xFF, 0xFF, 0xFF, 0xFF, 0xFF, 0xFF, 0x3F, 0xFF, 0xFF, 
  0xFF, 0xFF, 0xFF, 0xFF, 0xFF, 0xFF, 0xFF, 0xFF, 0xFF, 0xFF, 0xFF, 0xFF, 
  0xFF, 0x11, 0x04, 0x00, 0xFE, 0xFF, 0xFF, 0xFF, 0xFF, 0xFF, 0xFF, 0xFF, 
  0xFF, 0x1F, 0xF0, 0xFF, 0xFF, 0xFF, 0xFF, 0xFF, 0xFF, 0xFF, 0x3F, 0xFF, 
  0xFF, 0xFF, 0xFF, 0xFF, 0xFF, 0xFF, 0xFF, 0xFF, 0xFF, 0xFF, 0xFF, 0xFF, 
  0xFF, 0xFF, 0x07, 0x08, 0x00, 0xF8, 0xFF, 0xFF, 0xFF, 0xFF, 0x3F, 0xF0, 
  0xFF, 0xFF, 0x0F, 0xF8, 0xFF, 0xFF, 0xFF, 0xFF, 0xFF, 0xFF, 0xFF, 0x3F, 
  0xFF, 0xFF, 0xFF, 0xFF, 0xFF, 0xFF, 0xFF, 0xFF, 0xFF, 0xFF, 0xFF, 0xFF, 
  0xFF, 0xFF, 0xFF, 0xFF, 0x1F, 0x00, 0xF0, 0xFF, 0xFF, 0xFF, 0x7F, 0x00, 
  0x00, 0xF8, 0xFF, 0x0F, 0xFC, 0xFF, 0xFF, 0xFF, 0xFF, 0xFF, 0xFF, 0xFF, 
  0x3F, 0xFF, 0xFF, 0xFF, 0xFF, 0xFF, 0xFF, 0xFF, 0xFF, 0xFF, 0xFF, 0xFF, 
  0xFF, 0xFF, 0xFF, 0xFF, 0xFF, 0x3F, 0x00, 0xE0, 0xFF, 0xFF, 0xFF, 0x07, 
  0x00, 0x00, 0xC0, 0xFF, 0x07, 0xFE, 0xFF, 0xFF, 0xFF, 0xFF, 0xFF, 0xFF, 
  0xFF, 0x3F, 0xFF, 0xFF, 0xFF, 0xFF, 0xFF, 0xFF, 0xFF, 0xFF, 0xFF, 0xFF, 
  0xFF, 0xFF, 0xFF, 0xFF, 0xFF, 0xFF, 0xFF, 0x00, 0x80, 0xFF, 0xFF, 0xFF, 
  0x01, 0x00, 0x00, 0x00, 0xFE, 0x03, 0xFE, 0xFF, 0xFF, 0xFF, 0xFF, 0xFF, 
  0xFF, 0xFF, 0x3F, 0xFF, 0xFF, 0xFF, 0xFF, 0xFF, 0xFF, 0xFF, 0xFF, 0xFF, 
  0xFF, 0xFF, 0xFF, 0xFF, 0xFF, 0xFF, 0xFF, 0xFF, 0x01, 0x00, 0xFF, 0xFF, 
  0x3F, 0x00, 0x00, 0x00, 0x00, 0xF8, 0x01, 0xFF, 0xFF, 0xFF, 0xFF, 0xFF, 
  0xFF, 0xFF, 0xFF, 0x3F, 0xFF, 0xFF, 0xFF, 0xFF, 0xFF, 0xFF, 0xFF, 0xFF, 
  0xFF, 0xFF, 0xFF, 0xFF, 0xFF, 0xFF, 0xFF, 0xFF, 0xFF, 0x03, 0x00, 0xFE, 
  0xFF, 0x1F, 0x00, 0x00, 0x00, 0x00, 0xE0, 0x81, 0xFF, 0xFF, 0xFF, 0xFF, 
  0xFF, 0xFF, 0xFF, 0xFF, 0x3F, 0xFF, 0xFF, 0xFF, 0xFF, 0xFF, 0xFF, 0xFF, 
  0xFF, 0xFF, 0xFF, 0xFF, 0xFF, 0xFF, 0xFF, 0xFF, 0xFF, 0xFF, 0x07, 0x00, 
  0xFC, 0xFF, 0x07, 0x00, 0x00, 0x00, 0x00, 0x80, 0xC0, 0xFF, 0xFF, 0xFF, 
  0xFF, 0xFF, 0xFF, 0xFF, 0xFF, 0x3F, 0xFF, 0xFF, 0xFF, 0xFF, 0xFF, 0xFF, 
  0xFF, 0xFF, 0xFF, 0xFF, 0xFF, 0xFF, 0xFF, 0xFF, 0xFF, 0xFF, 0xFF, 0x1F, 
  0x00, 0xF0, 0xFF, 0x01, 0x00, 0x00, 0x00, 0x00, 0x00, 0xC0, 0xFF, 0xFF, 
  0xFF, 0xFF, 0xFF, 0xFF, 0xFF, 0xFF, 0x3F, 0xFF, 0xFF, 0xFF, 0xFF, 0xFF, 
  0xFF, 0xFF, 0xFF, 0xFF, 0xFF, 0xFF, 0xFF, 0xFF, 0xFF, 0xFF, 0xFF, 0xFF, 
  0x3F, 0x00, 0xE0, 0xFF, 0x00, 0x00, 0x00, 0x00, 0x00, 0x00, 0xE0, 0xFF, 
  0xFF, 0xFF, 0xFF, 0xFF, 0xFF, 0xFF, 0xFF, 0x3F, 0xFF, 0xFF, 0xFF, 0xFF, 
  0xFF, 0xFF, 0xFF, 0xFF, 0xFF, 0xFF, 0xFF, 0xFF, 0xFF, 0xFF, 0xFF, 0xFF, 
  0xFF, 0x7F, 0x00, 0xC0, 0x7F, 0x00, 0x00, 0x00, 0x00, 0x00, 0x00, 0xF0, 
  0xFF, 0xFF, 0xFF, 0xFF, 0xFF, 0xFF, 0xFF, 0xFF, 0x3F, 0xFF, 0xFF, 0xFF, 
  0xFF, 0xFF, 0xFF, 0xFF, 0xFF, 0xFF, 0x00, 0xC0, 0xFF, 0xFF, 0xFF, 0x00, 
  0x80, 0xFF, 0xFF, 0x01, 0x00, 0x1F, 0x00, 0x00, 0x00, 0x00, 0x00, 0x00, 
  0xF0, 0xFF, 0xFF, 0xFF, 0xFF, 0xFF, 0xFF, 0xFF, 0xFF, 0x3F, 0xFF, 0xFF, 
  0xFF, 0xFF, 0xFF, 0xFF, 0xFF, 0xFF, 0x7F, 0x80, 0xA0, 0xFF, 0xFF, 0xFF, 
  0x00, 0x80, 0xFF, 0xFF, 0x03, 0x00, 0x0E, 0x00, 0x00, 0x00, 0x00, 0x00, 
  0x00, 0xE0, 0xFF, 0xFF, 0x3F, 0x20, 0x01, 0x12, 0x84, 0x00, 0x00, 0xFF, 
  0xFF, 0xFF, 0xFF, 0xFF, 0xFF, 0xFF, 0xFF, 0x7F, 0x09, 0x84, 0xFF, 0xFF, 
  0xFF, 0x51, 0x49, 0xFF, 0xFF, 0x07, 0x00, 0x04, 0x00, 0x00, 0x00, 0x00, 
  0x00, 0x00, 0xC0, 0xFF, 0xFF, 0x3F, 0x04, 0x40, 0x00, 0x00, 0x84, 0x04, 
  0xFF, 0xFF, 0xFF, 0xFF, 0xFF, 0xFF, 0xFF, 0xFF, 0x7F, 0x40, 0x88, 0xFF, 
  0xFF, 0x7F, 0x20, 0x10, 0xFF, 0xFF, 0x1F, 0x00, 0x00, 0x00, 0x00, 0xE0, 
  0x1F, 0x00, 0x00, 0x80, 0xFF, 0xFF, 0x3F, 0x40, 0x08, 0xA0, 0x40, 0x00, 
  0x00, 0xFF, 0xFF, 0xFF, 0xFF, 0xFF, 0xFF, 0xFF, 0xFF, 0x7F, 0x08, 0x42, 
  0xFF, 0xFF, 0x7F, 0x08, 0x08, 0xFF, 0xFF, 0x3F, 0x00, 0x00, 0x00, 0x00, 
  0xFE, 0xFF, 0x01, 0x00, 0x00, 0xFF, 0xFF, 0x7F, 0x02, 0x92, 0x00, 0x01, 
  0x11, 0x14, 0xFF, 0xFF, 0xFF, 0xFF, 0xFF, 0xFF, 0xFF, 0xFF, 0x3F, 0x02, 
  0x04, 0xFF, 0xFF, 0x7F, 0x02, 0x02, 0xFF, 0xFF, 0x7F, 0x00, 0x00, 0x00, 
  0xC0, 0xFF, 0xFF, 0x0F, 0x00, 0x00, 0xFE, 0xFF, 0x3F, 0x00, 0x04, 0x49, 
  0x04, 0x44, 0x02, 0xFF, 0xFF, 0xFF, 0xFF, 0xFF, 0xFF, 0xFF, 0xFF, 0x3F, 
  0x10, 0x20, 0xFF, 0xFF, 0x3F, 0x20, 0x40, 0xFE, 0xFF, 0xFF, 0x00, 0x00, 
  0x00, 0xF0, 0xFF, 0xFF, 0x3F, 0x00, 0x00, 0xFC, 0xFF, 0x3F, 0x45, 0x00, 
  0x00, 0x11, 0x01, 0x08, 0xFF, 0xFF, 0xFF, 0xFF, 0xFF, 0xFF, 0xFF, 0xFF, 
  0x3F, 0x61, 0x04, 0xFE, 0xFF, 0xBF, 0x00, 0x08, 0xFE, 0xFF, 0xFF, 0x03, 
  0x00, 0x00, 0xFC, 0xFF, 0xFF, 0xFF, 0x00, 0x00, 0xF8, 0xFF, 0x3F, 0x20, 
  0x10, 0x08, 0x20, 0x00, 0x04, 0xFF, 0xFF, 0xFF, 0xFF, 0xFF, 0xFF, 0xFF, 
  0xFF, 0x3F, 0x00, 0x20, 0xFE, 0xFF, 0x3F, 0x10, 0x82, 0xFE, 0xFF, 0xFF, 
  0x07, 0x00, 0x00, 0xFF, 0xFF, 0xFF, 0xFF, 0x01, 0x00, 0xF8, 0xFF, 0x3F, 
  0x04, 0x41, 0x40, 0x08, 0x08, 0x10, 0xFF, 0xFF, 0xFF, 0xFF, 0xFF, 0xFF, 
  0xFF, 0xFF, 0x9F, 0x40, 0x02, 0xFE, 0xFF, 0x1F, 0x49, 0x08, 0xFE, 0xFF, 
  0xFF, 0x0F, 0x00, 0x80, 0xFF, 0xFF, 0xFF, 0xFF, 0x07, 0x00, 0xF0, 0xFF, 
  0x7F, 0x00, 0x04, 0x01, 0x00, 0x82, 0x00, 0xFF, 0xFF, 0xFF, 0xFF, 0xFF, 
  0xFF, 0xFF, 0xFF, 0x1F, 0x04, 0x50, 0xFC, 0xFF, 0x1F, 0x10, 0x20, 0xFC, 
  0xFF, 0xFF, 0x1F, 0x00, 0xC0, 0xFF, 0xFF, 0xFF, 0xFF, 0x0F, 0x00, 0xE0, 
  0xFF, 0x3F, 0x82, 0x20, 0xA0, 0x81, 0x18, 0x04, 0xFF, 0xFF, 0xFF, 0xFF, 
  0xFF, 0xFF, 0xFF, 0xFF, 0x1F, 0x04, 0x22, 0xFC, 0xFF, 0x8F, 0x01, 0x41, 
  0xFE, 0xFF, 0xFF, 0x0F, 0x00, 0xE0, 0xFF, 0xFF, 0xFF, 0xFF, 0x1F, 0x00, 
  0xE0, 0xFF, 0x3F, 0x04, 0x02, 0x10, 0x08, 0x80, 0x08, 0xFF, 0xFF, 0xFF, 
  0xFF, 0xFF, 0xFF, 0xFF, 0xFF, 0x5F, 0x20, 0x00, 0xFC, 0xFF, 0x2F, 0x80, 
  0x00, 0xFC, 0xFF, 0xFF, 0x0F, 0x00, 0xF0, 0xFF, 0xFF, 0xFF, 0xFF, 0x3F, 
  0x00, 0xC0, 0xFF, 0x3F, 0x10, 0x40, 0x02, 0x50, 0x01, 0x02, 0xFF, 0xFF, 
  0xFF, 0xFF, 0xFF, 0xFF, 0xFF, 0xFF, 0x1F, 0x00, 0x00, 0xFA, 0xFF, 0x8F, 
  0x28, 0x20, 0xFC, 0xFF, 0xFF, 0x07, 0x00, 0xF8, 0xFF, 0xFF, 0xFF, 0xFF, 
  0x7F, 0x00, 0xC0, 0xFF, 0x3F, 0x41, 0x00, 0x08, 0x11, 0x10, 0x00, 0xFF, 
  0xFF, 0xFF, 0xFF, 0xFF, 0xFF, 0xFF, 0xFF, 0x0F, 0x51, 0x28, 0xF8, 0xFF, 
  0x07, 0x00, 0x02, 0xF8, 0xFF, 0xFF, 0x07, 0x00, 0xFC, 0xFF, 0xFF, 0xFF, 
  0xFF, 0xFF, 0x00, 0x80, 0xFF, 0x7F, 0x10, 0xA2, 0x40, 0x00, 0x04, 0x24, 
  0xFF, 0xFF, 0xFF, 0xFF, 0xFF, 0xFF, 0xFF, 0xFF, 0x0F, 0x20, 0xA1, 0xF0, 
  0xFF, 0x27, 0x00, 0x80, 0xFA, 0xFF, 0xFF, 0x03, 0x00, 0xFE, 0xFF, 0xFF, 
  0xFF, 0xFF, 0xFF, 0x00, 0x80, 0xFF, 0xFF, 0xFF, 0x7F, 0x12, 0xE6, 0xFF, 
  0x3F, 0xFF, 0xFF, 0xFF, 0xFF, 0xFF, 0xFF, 0xFF, 0xFF, 0x8F, 0x08, 0x00, 
  0xF8, 0xFF, 0x07, 0x08, 0x22, 0xF8, 0xFF, 0xFF, 0x03, 0x00, 0xFE, 0xFF, 
  0xFF, 0xFF, 0xFF, 0xFF, 0x01, 0x00, 0xFF, 0xFF, 0xFF, 0x7F, 0x00, 0xE0, 
  0xFF, 0x3F, 0xFF, 0xFF, 0xFF, 0xFF, 0xFF, 0xFF, 0xFF, 0xFF, 0x27, 0x80, 
  0x40, 0xF0, 0xFF, 0x03, 0x92, 0x48, 0xFC, 0xFF, 0xFF, 0x03, 0x00, 0xFF, 
  0xFF, 0xFF, 0xFF, 0xFF, 0xFF, 0x03, 0x00, 0xFF, 0xFF, 0xFF, 0x7F, 0x00, 
  0xE2, 0xFF, 0x3F, 0xFF, 0xFF, 0xFF, 0xFF, 0xFF, 0xFF, 0xFF, 0xFF, 0x87, 
  0x01, 0x02, 0xE2, 0xFF, 0x83, 0x08, 0x00, 0xF0, 0xFF, 0xFF, 0x01, 0x00, 
  0xFF, 0xFF, 0xFF, 0xFF, 0xFF, 0xFF, 0x03, 0x00, 0xFF, 0xFF, 0xFF, 0x7F, 
  0x48, 0xE0, 0xFF, 0x3F, 0xFF, 0xFF, 0xFF, 0xFF, 0xFF, 0xFF, 0xFF, 0xFF, 
  0x07, 0x18, 0x00, 0xE0, 0xFF, 0x1B, 0x80, 0x01, 0xF0, 0xFF, 0xFF, 0x01, 
  0x80, 0xFF, 0xFF, 0xFF, 0xFF, 0xFF, 0xFF, 0x07, 0x00, 0xFE, 0xFF, 0xFF, 
  0x7F, 0x0A, 0xE1, 0xFF, 0x3F, 0xFF, 0xFF, 0xFF, 0xFF, 0xFF, 0xFF, 0xFF, 
  0xFF, 0x17, 0x41, 0x24, 0xE1, 0xFF, 0x41, 0x11, 0x04, 0xF9, 0xFF, 0xFF, 
  0x01, 0x80, 0xFF, 0xFF, 0xFF, 0xFF, 0xFF, 0xFF, 0x07, 0x00, 0xFE, 0xFF, 
  0xFF, 0x7F, 0x80, 0xE0, 0xFF, 0x3F, 0xFF, 0xFF, 0xFF, 0xFF, 0xFF, 0xFF, 
  0xFF, 0xFF, 0x03, 0x10, 0x41, 0xE0, 0xFF, 0x11, 0x04, 0x90, 0xF0, 0xFF, 
  0xFF, 0x00, 0xC0, 0xFF, 0xFF, 0xFF, 0xFF, 0xFF, 0xFF, 0x0F, 0x00, 0xFE, 
  0xFF, 0xFF, 0x7F, 0x04, 0xE8, 0xFF, 0x3F, 0xFF, 0xFF, 0xFF, 0xFF, 0xFF, 
  0xFF, 0xFF, 0xFF, 0x83, 0x00, 0x10, 0xC8, 0xFF, 0x01, 0x00, 0x02, 0xE0, 
  0xFF, 0xFF, 0x00, 0xC0, 0xFF, 0xFF, 0xFF, 0xFF, 0xFF, 0xFF, 0x0F, 0x00, 
  0xFE, 0xFF, 0xFF, 0x7F, 0x10, 0xE0, 0xFF, 0x3F, 0xFF, 0xFF, 0xFF, 0xFF, 
  0xFF, 0xFF, 0xFF, 0xFF, 0x27, 0x10, 0x00, 0xC1, 0xFF, 0x00, 0x40, 0x00, 
  0xE0, 0xFF, 0xFF, 0x00, 0xE0, 0xFF, 0xFF, 0xFF, 0xFF, 0xFF, 0xFF, 0x0F, 
  0x00, 0xFC, 0xFF, 0xFF, 0x7F, 0x82, 0xE0, 0xFF, 0x3F, 0xFF, 0xFF, 0xFF, 
  0xFF, 0xFF, 0xFF, 0xFF, 0xFF, 0x03, 0x42, 0x04, 0x80, 0xFF, 0x20, 0x08, 
  0x49, 0xE2, 0xFF, 0xFF, 0x00, 0xE0, 0xFF, 0xFF, 0xFF, 0xFF, 0xFF, 0xFF, 
  0x1F, 0x00, 0xFC, 0xFF, 0xFF, 0x7F, 0x00, 0xE5, 0xFF, 0x3F, 0xFF, 0xFF, 
  0xFF, 0xFF, 0xFF, 0xFF, 0xFF, 0xFF, 0x41, 0x20, 0x91, 0x98, 0x7F, 0x49, 
  0x0A, 0x20, 0xE4, 0xFF, 0xFF, 0x00, 0xE0, 0xFF, 0xFF, 0xFF, 0xFF, 0xFF, 
  0xFF, 0x1F, 0x00, 0xFC, 0xFF, 0xFF, 0x7F, 0x18, 0xE1, 0xFF, 0x3F, 0xFF, 
  0xFF, 0xFF, 0xFF, 0xFF, 0xFF, 0xFF, 0xFF, 0x11, 0x04, 0x08, 0x80, 0x7F, 
  0x10, 0x50, 0x80, 0xC1, 0xFF, 0xFF, 0x00, 0xE0, 0xFF, 0xFF, 0xFF, 0xFF, 
  0xFF, 0xFF, 0x1F, 0x00, 0x3C, 0xC0, 0xFF, 0x7F, 0x00, 0xE0, 0xFF, 0x3F, 
  0xFF, 0xFF, 0xFF, 0xFF, 0xFF, 0xFF, 0xFF, 0xFF, 0x21, 0xC0, 0x81, 0x81, 
  0x7F, 0x01, 0x41, 0x00, 0xC0, 0xFF, 0x7F, 0x00, 0xF0, 0xFF, 0xFF, 0xFF, 
  0xFF, 0xFF, 0xFF, 0x1F, 0x00, 0x1C, 0x82, 0xFF, 0x7F, 0x01, 0xE0, 0xFF, 
  0x3F, 0xFF, 0xFF, 0xFF, 0xFF, 0xFF, 0xFF, 0xFF, 0xFF, 0x05, 0x84, 0x01, 
  0x24, 0x3F, 0x88, 0xC0, 0x12, 0xC4, 0xFF, 0x7F, 0x00, 0xF0, 0xFF, 0xFF, 
  0xFF, 0xFF, 0xFF, 0xFF, 0x1F, 0x00, 0x0C, 0x10, 0xFF, 0x7F, 0x84, 0xE8, 
  0xFF, 0x3F, 0xFF, 0xFF, 0xFF, 0xFF, 0xFF, 0xFF, 0xFF, 0xFF, 0x01, 0x82, 
  0x15, 0x81, 0xBE, 0x20, 0xE0, 0x44, 0xD0, 0xFF, 0x7F, 0x00, 0xF0, 0xFF, 
  0xFF, 0xFF, 0xFF, 0xFF, 0xFF, 0x3F, 0x00, 0x0C, 0x00, 0xFF, 0x7F, 0xA1, 
  0xE0, 0xFF, 0x3F, 0xFF, 0xFF, 0xFF, 0xFF, 0xFF, 0xFF, 0xFF, 0xFF, 0x20, 
  0x88, 0x03, 0x00, 0x3E, 0x00, 0xE4, 0x01, 0x82, 0xFF, 0x7F, 0x00, 0xF0, 
  0xFF, 0xFF, 0xFF, 0xFF, 0xFF, 0xFF, 0x3F, 0x00, 0x80, 0x08, 0xFF, 0x7F, 
  0x00, 0xE1, 0xFF, 0x3F, 0xFF, 0xFF, 0xFF, 0xFF, 0xFF, 0xFF, 0xFF, 0xFF, 
  0x00, 0xC8, 0x0B, 0x00, 0x1E, 0x00, 0xF2, 0x00, 0x80, 0xFF, 0x7F, 0x00, 
  0xF0, 0xFF, 0xFF, 0xFF, 0xFF, 0xFF, 0xFF, 0x3F, 0x00, 0x00, 0x80, 0xFF, 
  0x7F, 0x12, 0xE1, 0xFF, 0x3F, 0xFF, 0xFF, 0xFF, 0xFF, 0xFF, 0xFF, 0xFF, 
  0x7F, 0x20, 0xC2, 0x83, 0x04, 0x5C, 0x04, 0xF0, 0x09, 0x92, 0xFF, 0x7F, 
  0x00, 0xF0, 0xFF, 0xFF, 0xFF, 0xFF, 0xFF, 0xFF, 0x3F, 0x00, 0x40, 0x15, 
  0xFF, 0x7F, 0x00, 0xE0, 0xFF, 0x3F, 0xFF, 0xFF, 0xFF, 0xFF, 0xFF, 0xFF, 
  0xFF, 0x7F, 0x89, 0xC8, 0x27, 0x11, 0x1C, 0x11, 0xF4, 0x91, 0x00, 0xFF, 
  0x7F, 0x00, 0xF0, 0xFF, 0xFF, 0xFF, 0xFF, 0xFF, 0xFF, 0x3F, 0x00, 0x00, 
  0x41, 0xFF, 0x7F, 0x00, 0xE8, 0xFF, 0x3F, 0xFF, 0xFF, 0xFF, 0xFF, 0xFF, 
  0xFF, 0xFF, 0x7F, 0x00, 0xD0, 0x07, 0x80, 0x0D, 0x80, 0xF8, 0x09, 0x85, 
  0xFF, 0x7F, 0x00, 0xF0, 0xFF, 0xFF, 0xFF, 0xFF, 0xFF, 0xFF, 0x3F, 0x00, 
  0x9C, 0x00, 0xFF, 0x7F, 0x48, 0xE0, 0xFF, 0x3F, 0xFF, 0xFF, 0xFF, 0xFF, 
  0xFF, 0xFF, 0xFF, 0x7F, 0x10, 0xE1, 0x2F, 0x08, 0x09, 0x08, 0xF8, 0x41, 
  0x10, 0xFF, 0x7F, 0x00, 0xF0, 0xFF, 0xFF, 0xFF, 0xFF, 0xFF, 0xFF, 0x1F, 
  0x00, 0x0C, 0x08, 0xFF, 0x7F, 0x0A, 0xE0, 0xFF, 0x3F, 0xFF, 0xFF, 0xFF, 
  0xFF, 0xFF, 0xFF, 0xFF, 0x3F, 0x89, 0xE0, 0x0F, 0x92, 0x18, 0x92, 0xF9, 
  0x03, 0x08, 0xFF, 0x7F, 0x00, 0xF0, 0xFF, 0xFF, 0xFF, 0xFF, 0xFF, 0xFF, 
  0x1F, 0x00, 0x1C, 0x80, 0xFF, 0x7F, 0x80, 0xE1, 0xFF, 0x3F, 0xFF, 0xFF, 
  0xFF, 0xFF, 0xFF, 0xFF, 0xFF, 0x3F, 0x20, 0xE0, 0x0F, 0x08, 0x40, 0x04, 
  0xFC, 0x23, 0x02, 0xFE, 0xFF, 0x00, 0xE0, 0xFF, 0xFF, 0xFF, 0xFF, 0xFF, 
  0xFF, 0x1F, 0x00, 0x3C, 0xC0, 0xFF, 0x7F, 0x04, 0xE4, 0xFF, 0x3F, 0xFF, 
  0xFF, 0xFF, 0xFF, 0xFF, 0xFF, 0xFF, 0x7F, 0x00, 0xE4, 0x9F, 0x00, 0x10, 
  0x00, 0xFC, 0x03, 0x40, 0xFE, 0xFF, 0x00, 0xE0, 0xFF, 0xFF, 0xFF, 0xFF, 
  0xFF, 0xFF, 0x1F, 0x00, 0xFC, 0xFF, 0xFF, 0x7F, 0x10, 0xE1, 0xFF, 0x3F, 
  0xFF, 0xFF, 0xFF, 0xFF, 0xFF, 0xFF, 0xFF, 0x3F, 0x80, 0xF0, 0x1F, 0x01, 
  0x00, 0x08, 0xFC, 0x83, 0x00, 0xFE, 0xFF, 0x00, 0xE0, 0xFF, 0xFF, 0xFF, 
  0xFF, 0xFF, 0xFF, 0x1F, 0x00, 0xFC, 0xFF, 0xFF, 0x7F, 0x82, 0xE0, 0xFF, 
  0x3F, 0xFF, 0xFF, 0xFF, 0xFF, 0xFF, 0xFF, 0xFF, 0x1F, 0x22, 0xF8, 0x1F, 
  0x44, 0xA1, 0x40, 0xFE, 0x27, 0x11, 0xFE, 0xFF, 0x00, 0xE0, 0xFF, 0xFF, 
  0xFF, 0xFF, 0xFF, 0xFF, 0x0F, 0x00, 0xFC, 0xFF, 0xFF, 0x7F, 0x00, 0xE8, 
  0xFF, 0x3F, 0xFF, 0xFF, 0xFF, 0xFF, 0xFF, 0xFF, 0xFF, 0x1F, 0x88, 0xF2, 
  0x7F, 0x12, 0x84, 0x10, 0xFE, 0x47, 0x40, 0xFC, 0xFF, 0x00, 0xC0, 0xFF, 
  0xFF, 0xFF, 0xFF, 0xFF, 0xFF, 0x0F, 0x00, 0xFE, 0xFF, 0xFF, 0x7F, 0x18, 
  0xE0, 0xFF, 0x3F, 0xFF, 0xFF, 0xFF, 0xFF, 0xFF, 0xFF, 0xFF, 0x3F, 0x01, 
  0xF0, 0x3F, 0x00, 0x01, 0x82, 0xFE, 0x07, 0x18, 0xFC, 0xFF, 0x00, 0xC0, 
  0xFF, 0xFF, 0xFF, 0xFF, 0xFF, 0xFF, 0x0F, 0x00, 0xFE, 0xFF, 0xFF, 0x7F, 
  0x00, 0xE1, 0xFF, 0x3F, 0xFF, 0xFF, 0xFF, 0xFF, 0xFF, 0xFF, 0xFF, 0x1F, 
  0x00, 0xF8, 0x3F, 0x80, 0x00, 0x10, 0xFF, 0x07, 0x01, 0xFE, 0xFF, 0x01, 
  0x80, 0xFF, 0xFF, 0xFF, 0xFF, 0xFF, 0xFF, 0x07, 0x00, 0xFE, 0xFF, 0xFF, 
  0x7F, 0x01, 0xE1, 0xFF, 0x3F, 0xFF, 0xFF, 0xFF, 0xFF, 0xFF, 0xFF, 0xFF, 
  0x4F, 0x04, 0xF9, 0x7F, 0x20, 0x18, 0x01, 0xFF, 0x0F, 0x80, 0xFC, 0xFF, 
  0x01, 0x80, 0xFF, 0xFF, 0xFF, 0xFF, 0xFF, 0xFF, 0x07, 0x00, 0xFE, 0xFF, 
  0xFF, 0x7F, 0x84, 0xE0, 0xFF, 0x3F, 0xFF, 0xFF, 0xFF, 0xFF, 0xFF, 0xFF, 
  0xFF, 0x0F, 0x90, 0xF8, 0x7F, 0x09, 0x00, 0x20, 0xFF, 0x9F, 0x08, 0xF8, 
  0xFF, 0x01, 0x00, 0xFF, 0xFF, 0xFF, 0xFF, 0xFF, 0xFF, 0x03, 0x00, 0xFF, 
  0xFF, 0xFF, 0x7F, 0xA1, 0xE8, 0xFF, 0x3F, 0xFF, 0xFF, 0xFF, 0xFF, 0xFF, 
  0xFF, 0xFF, 0x2F, 0x02, 0xF8, 0x7F, 0x40, 0x82, 0x88, 0xFF, 0x0F, 0x20, 
  0xF8, 0xFF, 0x03, 0x00, 0xFF, 0xFF, 0xFF, 0xFF, 0xFF, 0xFF, 0x03, 0x00, 
  0xFF, 0xFF, 0xFF, 0x7F, 0x00, 0xE0, 0xFF, 0x3F, 0xFF, 0xFF, 0xFF, 0xFF, 
  0xFF, 0xFF, 0xFF, 0x1F, 0x08, 0xFC, 0xFF, 0x82, 0x10, 0x81, 0xFF, 0x0F, 
  0x86, 0xF8, 0xFF, 0x03, 0x00, 0xFE, 0xFF, 0xFF, 0xFF, 0xFF, 0xFF, 0x01, 
  0x00, 0xFF, 0xFF, 0xFF, 0x7F, 0x12, 0xE6, 0xFF, 0x3F, 0xFF, 0xFF, 0xFF, 
  0xFF, 0xFF, 0xFF, 0xFF, 0x07, 0x40, 0xFC, 0xFF, 0x00, 0x04, 0xC0, 0xFF, 
  0x5F, 0x00, 0xFA, 0xFF, 0x03, 0x00, 0xFE, 0xFF, 0xFF, 0xFF, 0xFF, 0xFF, 
  0x00, 0x80, 0xFF, 0xFF, 0xFF, 0x7F, 0x00, 0xE0, 0xFF, 0x3F, 0xFF, 0xFF, 
  0xFF, 0xFF, 0xFF, 0xFF, 0xFF, 0x87, 0x01, 0xFE, 0xFF, 0x19, 0x80, 0xD8, 
  0xFF, 0x1F, 0x04, 0xF8, 0xFF, 0x07, 0x00, 0xFC, 0xFF, 0xFF, 0xFF, 0xFF, 
  0xFF, 0x00, 0x80, 0xFF, 0xFF, 0xFF, 0x7F, 0x00, 0xE2, 0xFF, 0x3F, 0xFF, 
  0xFF, 0xFF, 0xFF, 0xFF, 0xFF, 0xFF, 0x0F, 0x60, 0xFC, 0xFF, 0x01, 0x0A, 
  0xC0, 0xFF, 0x9F, 0x20, 0xF0, 0xFF, 0x07, 0x00, 0xF8, 0xFF, 0xFF, 0xFF, 
  0xFF, 0x7F, 0x00, 0xC0, 0xFF, 0xFF, 0xFF, 0x7F, 0x48, 0xE0, 0xFF, 0x3F, 
  0xFF, 0xFF, 0xFF, 0xFF, 0xFF, 0xFF, 0xFF, 0x47, 0x12, 0xFE, 0xFF, 0x01, 
  0x48, 0xE0, 0xFF, 0x1F, 0x20, 0xF2, 0xFF, 0x0F, 0x00, 0xF0, 0xFF, 0xFF, 
  0xFF, 0xFF, 0x3F, 0x00, 0xC0, 0xFF, 0xFF, 0xFF, 0x7F, 0x0A, 0xE1, 0xFF, 
  0x3F, 0xFF, 0xFF, 0xFF, 0xFF, 0xFF, 0xFF, 0xFF, 0x03, 0x00, 0xFE, 0xFF, 
  0x83, 0x00, 0xE1, 0xFF, 0x3F, 0x04, 0xF0, 0xFF, 0x0F, 0x00, 0xE0, 0xFF, 
  0xFF, 0xFF, 0xFF, 0x1F, 0x00, 0xE0, 0xFF, 0xFF, 0xFF, 0x7F, 0x80, 0xE0, 
  0xFF, 0x3F, 0xFF, 0xFF, 0xFF, 0xFF, 0xFF, 0xFF, 0xFF, 0x03, 0x08, 0xFE, 
  0xFF, 0xA7, 0x00, 0xE5, 0xFF, 0x7F, 0x00, 0xE0, 0xFF, 0x1F, 0x00, 0xC0, 
  0xFF, 0xFF, 0xFF, 0xFF, 0x0F, 0x00, 0xE0, 0xFF, 0xFF, 0xFF, 0x7F, 0x04, 
  0xE8, 0xFF, 0x3F, 0xFF, 0xFF, 0xFF, 0xFF, 0xFF, 0xFF, 0xFF, 0x1B, 0x40, 
  0xFE, 0xFF, 0x03, 0x12, 0xF0, 0xFF, 0x3F, 0x8A, 0xE2, 0xFF, 0x3F, 0x00, 
  0x80, 0xFF, 0xFF, 0xFF, 0xFF, 0x07, 0x00, 0xF0, 0xFF, 0xFF, 0xFF, 0x7F, 
  0x10, 0xE0, 0xFF, 0x3F, 0xFF, 0xFF, 0xFF, 0xFF, 0xFF, 0xFF, 0xFF, 0x63, 
  0x85, 0xFF, 0xFF, 0x07, 0x10, 0xF0, 0xFF, 0x3F, 0x18, 0xE0, 0xFF, 0x3F, 
  0x00, 0x00, 0xFF, 0xFF, 0xFF, 0xFF, 0x01, 0x00, 0xE0, 0xFF, 0xFF, 0xFF, 
  0x7F, 0x00, 0xE0, 0xFF, 0x3F, 0xFF, 0xFF, 0xFF, 0xFF, 0xFF, 0xFF, 0xFF, 
  0x01, 0x00, 0xFF, 0xFF, 0x17, 0x42, 0xF8, 0xFF, 0x7F, 0x00, 0xE5, 0xFF, 
  0x7F, 0x00, 0x00, 0xFC, 0xFF, 0xFF, 0xFF, 0x00, 0x00, 0xC0, 0xFF, 0xFF, 
  0xFF, 0x7F, 0x92, 0xE5, 0xFF, 0x3F, 0xFF, 0xFF, 0xFF, 0xFF, 0xFF, 0xFF, 
  0xFF, 0x41, 0x02, 0xFF, 0xFF, 0x07, 0x10, 0xFA, 0xFF, 0x7F, 0x00, 0xC1, 
  0xFF, 0xFF, 0x00, 0x00, 0xF0, 0xFF, 0xFF, 0x3F, 0x00, 0x00, 0x00, 0xFF, 
  0xFF, 0xFF, 0x7F, 0x00, 0xE1, 0xFF, 0x3F, 0xFF, 0xFF, 0xFF, 0xFF, 0xFF, 
  0xFF, 0xFF, 0x03, 0x20, 0xFF, 0xFF, 0x8F, 0x04, 0xF8, 0xFF, 0x7F, 0x42, 
  0xC0, 0xFF, 0xFF, 0x00, 0x00, 0xC0, 0xFF, 0xFF, 0x0F, 0x00, 0x00, 0x00, 
  0xFE, 0xFF, 0xFF, 0x7F, 0x05, 0xE0, 0xFF, 0x3F, 0xFF, 0xFF, 0xFF, 0xFF, 
  0xFF, 0xFF, 0xFF, 0x01, 0x80, 0xFF, 0xFF, 0x0F, 0x00, 0xF8, 0xFF, 0x7F, 
  0x00, 0xC0, 0xFF, 0xFF, 0x01, 0x00, 0x00, 0xFF, 0xFF, 0x01, 0x00, 0x00, 
  0x00, 0xFC, 0xFF, 0xFF, 0x7F, 0x00, 0xE0, 0xFF, 0x3F, 0xFF, 0xFF, 0xFF, 
  0xFF, 0xFF, 0xFF, 0xFF, 0xFF, 0xFF, 0xFF, 0xFF, 0xFF, 0xFF, 0xFF, 0xFF, 
  0xFF, 0xFF, 0xFF, 0xFF, 0xFF, 0x03, 0x00, 0x00, 0xF0, 0x1F, 0x00, 0x00, 
  0x80, 0x00, 0xF8, 0xFF, 0xFF, 0x7F, 0x48, 0xE0, 0xFF, 0x3F, 0xFF, 0xFF, 
  0xFF, 0xFF, 0xFF, 0xFF, 0xFF, 0xFF, 0xFF, 0xFF, 0xFF, 0xFF, 0xFF, 0xFF, 
  0xFF, 0xFF, 0xFF, 0xFF, 0xFF, 0xFF, 0x07, 0x00, 0x00, 0x00, 0x00, 0x00, 
  0x00, 0x80, 0x01, 0xE0, 0xFF, 0xFF, 0xFF, 0xFF, 0xFF, 0xFF, 0x3F, 0xFF, 
  0xFF, 0xFF, 0xFF, 0xFF, 0xFF, 0xFF, 0xFF, 0xFF, 0xFF, 0xFF, 0xFF, 0xFF, 
  0xFF, 0xFF, 0xFF, 0xFF, 0xFF, 0xFF, 0xFF, 0x0F, 0x00, 0x00, 0x00, 0x00, 
  0x00, 0x00, 0xC0, 0x03, 0xC0, 0xFF, 0xFF, 0xFF, 0xFF, 0xFF, 0xFF, 0x3F, 
  0xFF, 0xFF, 0xFF, 0xFF, 0xFF, 0xFF, 0xFF, 0xFF, 0xFF, 0xFF, 0xFF, 0xFF, 
  0xFF, 0xFF, 0xFF, 0xFF, 0xFF, 0xFF, 0xFF, 0xFF, 0x0F, 0x00, 0x00, 0x00, 
  0x00, 0x00, 0x00, 0xF0, 0x07, 0x80, 0xFF, 0xFF, 0xFF, 0xFF, 0xFF, 0xFF, 
  0x3F, 0xFF, 0xFF, 0xFF, 0xFF, 0xFF, 0xFF, 0xFF, 0xFF, 0xFF, 0xFF, 0xFF, 
  0xFF, 0xFF, 0xFF, 0xFF, 0xFF, 0xFF, 0xFF, 0xFF, 0xFF, 0x07, 0x00, 0x00, 
  0x00, 0x00, 0x00, 0x00, 0xF8, 0x1F, 0x00, 0xFE, 0xFF, 0xFF, 0xFF, 0xFF, 
  0xFF, 0x3F, 0xFF, 0xFF, 0xFF, 0xFF, 0xFF, 0xFF, 0xFF, 0xFF, 0xFF, 0xFF, 
  0xFF, 0xFF, 0xFF, 0xFF, 0xFF, 0xFF, 0xFF, 0xFF, 0xFF, 0xFF, 0x03, 0x00, 
  0x00, 0x00, 0x00, 0x00, 0x00, 0xFC, 0x3F, 0x00, 0xFC, 0xFF, 0xFF, 0xFF, 
  0xFF, 0xFF, 0x3F, 0xFF, 0xFF, 0xFF, 0xFF, 0xFF, 0xFF, 0xFF, 0xFF, 0xFF, 
  0xFF, 0xFF, 0xFF, 0xFF, 0xFF, 0xFF, 0xFF, 0xFF, 0xFF, 0xFF, 0x1F, 0x00, 
  0x01, 0x00, 0x00, 0x00, 0x00, 0x00, 0xFE, 0x7F, 0x00, 0xF8, 0xFF, 0xFF, 
  0xFF, 0xFF, 0xFF, 0x3F, 0xFF, 0xFF, 0xFF, 0xFF, 0xFF, 0xFF, 0xFF, 0xFF, 
  0xFF, 0xFF, 0xFF, 0xFF, 0xFF, 0xFF, 0xFF, 0xFF, 0xFF, 0xFF, 0xFF, 0x0F, 
  0x81, 0x07, 0x00, 0x00, 0x00, 0x00, 0x80, 0xFF, 0xFF, 0x01, 0xF0, 0xFF, 
  0xFF, 0xFF, 0xFF, 0xFF, 0x3F, 0xFF, 0xFF, 0xFF, 0xFF, 0xFF, 0xFF, 0xFF, 
  0xFF, 0xFF, 0xFF, 0xFF, 0xFF, 0xFF, 0xFF, 0xFF, 0xFF, 0xFF, 0xFF, 0xFF, 
  0x87, 0x80, 0x0F, 0x00, 0x00, 0x00, 0x00, 0xE0, 0xFF, 0xFF, 0x03, 0xC0, 
  0xFF, 0xFF, 0xFF, 0xFF, 0xFF, 0x3F, 0xFF, 0xFF, 0xFF, 0xFF, 0xFF, 0xFF, 
  0xFF, 0xFF, 0xFF, 0xFF, 0xFF, 0xFF, 0xFF, 0xFF, 0xFF, 0xFF, 0xFF, 0xFF, 
  0xFF, 0x27, 0x80, 0x3F, 0x00, 0x00, 0x00, 0x00, 0xF8, 0xFF, 0xFF, 0x07, 
  0x80, 0xFF, 0xFF, 0xFF, 0xFF, 0xFF, 0x3F, 0xFF, 0xFF, 0xFF, 0xFF, 0xFF, 
  0xFF, 0xFF, 0xFF, 0xFF, 0xFF, 0xFF, 0xFF, 0xFF, 0xFF, 0xFF, 0xFF, 0xFF, 
  0xFF, 0xFF, 0x03, 0x84, 0xFF, 0x01, 0x00, 0x00, 0x00, 0xFE, 0xFF, 0xFF, 
  0x1F, 0x00, 0xFF, 0xFF, 0xFF, 0xFF, 0xFF, 0x3F, 0xFF, 0xFF, 0xFF, 0xFF, 
  0xFF, 0xFF, 0xFF, 0xFF, 0xFF, 0xFF, 0xFF, 0xFF, 0xFF, 0xFF, 0xFF, 0xFF, 
  0xFF, 0xFF, 0xFF, 0x8B, 0x88, 0xFF, 0x07, 0x00, 0x00, 0x80, 0xFF, 0xFF, 
  0xFF, 0x3F, 0x00, 0x00, 0xFF, 0xFF, 0xFF, 0xFF, 0x3F, 0xFF, 0xFF, 0xFF, 
  0xFF, 0xFF, 0xFF, 0xFF, 0xFF, 0xFF, 0xFF, 0xFF, 0xFF, 0xFF, 0xFF, 0xFF, 
  0xFF, 0xFF, 0xFF, 0xFF, 0x03, 0x82, 0xFF, 0x7F, 0x00, 0x00, 0xF8, 0xFF, 
  0xFF, 0xFF, 0x7F, 0x00, 0x10, 0xFC, 0xFF, 0xFF, 0xFF, 0x3F, 0xFF, 0xFF, 
  0xFF, 0xFF, 0xFF, 0xFF, 0xFF, 0xFF, 0xFF, 0xFF, 0xFF, 0xFF, 0xFF, 0xFF, 
  0xFF, 0xFF, 0xFF, 0xFF, 0xFF, 0x03, 0x84, 0xFF, 0xFF, 0x1F, 0xE0, 0xFF, 
  0xFF, 0xFF, 0xFF, 0xFF, 0x00, 0x40, 0xF8, 0xFF, 0xFF, 0xFF, 0x3F, 0xFF, 
  0xFF, 0xFF, 0xFF, 0xFF, 0xFF, 0xFF, 0xFF, 0xFF, 0xFF, 0xFF, 0xFF, 0xFF, 
  0xFF, 0xFF, 0xFF, 0xFF, 0xFF, 0xFF, 0x27, 0xA0, 0xFF, 0xFF, 0xFF, 0xFF, 
  0xFF, 0xFF, 0xFF, 0xFF, 0xFF, 0x03, 0x18, 0xF1, 0xFF, 0xFF, 0xFF, 0x3F, 
  0xFF, 0xFF, 0xFF, 0xFF, 0xFF, 0xFF, 0xFF, 0xFF, 0xFF, 0xFF, 0xFF, 0xFF, 
  0xFF, 0xFF, 0xFF, 0xFF, 0xFF, 0xFF, 0xFF, 0x27, 0xC2, 0xFF, 0xFF, 0xFF, 
  0xFF, 0xFF, 0xFF, 0xFF, 0xFF, 0xFF, 0x07, 0x81, 0xF2, 0xFF, 0xFF, 0xFF, 
  0x3F, 0xFF, 0xFF, 0xFF, 0xFF, 0xFF, 0xFF, 0xFF, 0xFF, 0xFF, 0xFF, 0xFF, 
  0xFF, 0xFF, 0xFF, 0xFF, 0xFF, 0xFF, 0xFF, 0xFF, 0x0F, 0xC0, 0xFF, 0xFF, 
  0xFF, 0xFF, 0xFF, 0xFF, 0xFF, 0xFF, 0xFF, 0x2F, 0x00, 0xF0, 0xFF, 0xFF, 
  0xFF, 0x3F, 0xFF, 0xFF, 0xFF, 0xFF, 0xFF, 0xFF, 0xFF, 0xFF, 0xFF, 0xFF, 
  0xFF, 0xFF, 0xFF, 0xFF, 0xFF, 0xFF, 0xFF, 0xFF, 0xFF, 0x1F, 0xF0, 0xFF, 
  0xFF, 0xFF, 0xFF, 0xFF, 0xFF, 0xFF, 0xFF, 0xFF, 0x8F, 0x08, 0xE0, 0xFF, 
  0xFF, 0xFF, 0x3F, 0xFF, 0xFF, 0xFF, 0xFF, 0xFF, 0xFF, 0xFF, 0xFF, 0xFF, 
  0xFF, 0xFF, 0xFF, 0xFF, 0xFF, 0xFF, 0xFF, 0xFF, 0xFF, 0xFF, 0xFF, 0xFF, 
  0xFF, 0xFF, 0xFF, 0xFF, 0xFF, 0xFF, 0xFF, 0xFF, 0xFF, 0x0F, 0x20, 0xE2, 
  0xFF, 0xFF, 0xFF, 0x3F, 0xFF, 0xFF, 0xFF, 0xFF, 0xFF, 0xFF, 0xFF, 0xFF, 
  0xFF, 0xFF, 0xFF, 0xFF, 0xFF, 0xFF, 0xFF, 0xFF, 0xFF, 0xFF, 0xFF, 0xFF, 
  0xFF, 0xFF, 0xFF, 0xFF, 0xFF, 0xFF, 0xFF, 0xFF, 0xFF, 0xFF, 0x2F, 0x08, 
  0xE1, 0xFF, 0xFF, 0xFF, 0x3F, 0xFF, 0xFF, 0xFF, 0xFF, 0xFF, 0xFF, 0xFF, 
  0xFF, 0xFF, 0xFF, 0xFF, 0xFF, 0xFF, 0xFF, 0xFF, 0xFF, 0xFF, 0xFF, 0xFF, 
  0xFF, 0xFF, 0xFF, 0xFF, 0xFF, 0xFF, 0xFF, 0xFF, 0xFF, 0xFF, 0xFF, 0x0F, 
  0x82, 0xE0, 0xFF, 0xFF, 0xFF, 0x3F, 0xFF, 0xFF, 0xFF, 0xFF, 0xFF, 0xFF, 
  0xFF, 0xFF, 0xFF, 0xFF, 0xFF, 0xFF, 0xFF, 0xFF, 0xFF, 0xFF, 0xFF, 0xFF, 
  0xFF, 0xFF, 0xFF, 0xFF, 0xFF, 0xFF, 0xFF, 0xFF, 0xFF, 0xFF, 0xFF, 0xFF, 
  0x0F, 0x24, 0xF0, 0xFF, 0xFF, 0xFF, 0x3F, 0xFF, 0xFF, 0xFF, 0xFF, 0xFF, 
  0xFF, 0xFF, 0xFF, 0xFF, 0xFF, 0xFF, 0xFF, 0xFF, 0xFF, 0xFF, 0xFF, 0xFF, 
  0xFF, 0xFF, 0xFF, 0xFF, 0xFF, 0xFF, 0xFF, 0xFF, 0xFF, 0xFF, 0xFF, 0xFF, 
  0xFF, 0x5F, 0x00, 0xF4, 0xFF, 0xFF, 0xFF, 0x3F, 0xFF, 0xFF, 0xFF, 0xFF, 
  0xFF, 0xFF, 0xFF, 0xFF, 0xFF, 0xFF, 0xFF, 0xFF, 0xFF, 0xFF, 0xFF, 0xFF, 
  0xFF, 0xFF, 0xFF, 0xFF, 0xFF, 0xFF, 0xFF, 0xFF, 0xFF, 0xFF, 0xFF, 0xFF, 
  0xFF, 0xFF, 0x1F, 0x40, 0xF1, 0xFF, 0xFF, 0xFF, 0x3F, 0xFF, 0xFF, 0xFF, 
  0xFF, 0xFF, 0xFF, 0xFF, 0xFF, 0xFF, 0xFF, 0xFF, 0xFF, 0xFF, 0xFF, 0xFF, 
  0xFF, 0xFF, 0xFF, 0xFF, 0xFF, 0xFF, 0xFF, 0xFF, 0xFF, 0xFF, 0xFF, 0xFF, 
  0xFF, 0xFF, 0xFF, 0x3F, 0x02, 0xF8, 0xFF, 0xFF, 0xFF, 0x3F, 0xFF, 0xFF, 
  0xFF, 0xFF, 0xFF, 0xFF, 0xFF, 0xFF, 0xFF, 0xFF, 0xFF, 0xFF, 0xFF, 0xFF, 
  0xFF, 0xFF, 0xFF, 0xFF, 0xFF, 0xFF, 0xFF, 0xFF, 0xFF, 0xFF, 0xFF, 0xFF, 
  0xFF, 0xFF, 0xFF, 0xFF, 0x7F, 0x00, 0xFC, 0xFF, 0xFF, 0xFF, 0x3F, 0xFF, 
  0xFF, 0xFF, 0xFF, 0xFF, 0xFF, 0xFF, 0xFF, 0xFF, 0xFF, 0xFF, 0xFF, 0xFF, 
  0xFF, 0xFF, 0xFF, 0xFF, 0xFF, 0xFF, 0xFF, 0xFF, 0xFF, 0xFF, 0xFF, 0xFF, 
  0xFF, 0xFF, 0xFF, 0xFF, 0xFF, 0xFF, 0x85, 0xFE, 0xFF, 0xFF, 0xFF, 0x3F, 
  };
